<?xml version="1.0" standalone="no"?>
<!DOCTYPE svg PUBLIC "-//W3C//DTD SVG 20010904//EN"
 "http://www.w3.org/TR/2001/REC-SVG-20010904/DTD/svg10.dtd">
<svg version="1.0" xmlns="http://www.w3.org/2000/svg"
 width="700.000000pt" height="700.000000pt" viewBox="0 0 700.000000 700.000000"
 preserveAspectRatio="xMidYMid meet">
<metadata>
Created by potrace 1.14, written by Peter Selinger 2001-2017
</metadata>
<g transform="translate(0.000000,700.000000) scale(0.100000,-0.100000)"
fill="#000000" stroke="none">
<path d="M2629 5518 c-38 -14 -58 -38 -73 -87 -61 -201 -109 -347 -114 -353
-4 -3 -117 -8 -252 -11 -256 -4 -277 -7 -304 -50 -12 -18 -69 -206 -81 -266
-2 -9 -26 -101 -55 -206 -56 -205 -58 -220 -41 -263 23 -56 49 -62 269 -62
l201 0 -19 -57 c-20 -63 -54 -172 -120 -383 -23 -74 -50 -160 -59 -190 l-18
-55 -277 0 c-201 0 -275 3 -272 11 2 6 47 71 100 144 56 77 98 145 102 165 8
46 -10 95 -49 132 -34 32 -640 474 -692 504 -42 25 -84 29 -124 13 -43 -18
-59 -36 -162 -179 -46 -64 -100 -138 -119 -164 -19 -27 -76 -105 -125 -173
-105 -143 -120 -173 -112 -229 7 -50 27 -73 135 -152 l83 -60 -47 -18 c-60
-23 -89 -51 -110 -105 -25 -67 -15 -121 43 -212 18 -29 33 -54 33 -56 0 -2 29
-53 64 -114 36 -61 76 -131 89 -154 13 -24 134 -232 267 -463 465 -804 430
-747 480 -775 l45 -25 2245 0 c1297 -1 2260 3 2280 8 72 19 91 43 255 349 87
161 168 311 180 333 12 22 38 69 57 105 149 276 325 601 368 680 96 177 104
204 87 270 -13 48 -51 95 -95 116 -29 14 -68 18 -187 20 -82 2 -152 3 -155 3
-3 1 -5 124 -5 274 -1 218 -4 278 -16 302 -30 62 0 60 -868 59 -768 0 -792 -1
-817 -20 -23 -16 -62 -78 -159 -249 -12 -22 -46 -80 -75 -130 -29 -49 -61
-106 -72 -125 -11 -19 -29 -50 -40 -68 l-20 -33 -331 3 -332 3 0 348 0 347
347 0 c228 0 355 4 371 11 56 25 57 35 57 431 0 395 -1 401 -57 429 -32 16
-42 16 -555 6 -87 -2 -159 -1 -159 2 -1 3 -2 83 -3 177 -2 183 -8 207 -58 236
-27 15 -889 20 -929 6z"/>
</g>
</svg>
